# xmcd
#
# Track frame offsets:
#	150
#	13581
#	30069
#	45586
#	65057
#	80842
#	98236
#	116328
#	131248
#	148392
#	166847
#
# Disc length: 2495 seconds
#
# Revision: 1
# Processed by: cddbd v1.5.2PL0 Copyright (c) Steve Scherf et al.
# Submitted via: audiograbber 1.81.02
#
DISCID=9209bd0b
DTITLE=Shannon Curfman - Fast Lane Addiction
DYEAR=2007
DGENRE=Blues
TTITLE0=Fast Lane Addiction
TTITLE1=Do Me
TTITLE2=Little Things
TTITLE3=Square in a Circle
TTITLE4=Can't Let You Go
TTITLE5=Why
TTITLE6=Tangled
TTITLE7=Another
TTITLE8=Stone Cold Bitch
TTITLE9=Sex Type Thing
TTITLE10=I Can't Wait to Miss You
EXTD=Purdy Records
EXTT0=A. Krizan, M. D. Conklin, C. Coletti
EXTT1=S. Curfman, M. Young
EXTT2=S. Curfman, M. Young, B. Grosse
EXTT3=S. Curfman, M. Young, R. DeLeo, D. DeLeo
EXTT4=S. Curfman, M. Jameson
EXTT5=S. Curfman, A. Krizan, M. Young
EXTT6=S. Curfman, M. Young
EXTT7=S. Curfman, M. Young
EXTT8=
EXTT9=
EXTT10=(*Bonus Track]\nCurfman, Angelo
PLAYORDER=
